<svg width="1411" height="330" viewBox="0 0 1411 330" fill="none" xmlns="http://www.w3.org/2000/svg">
<path fill-rule="evenodd" clip-rule="evenodd" d="M137.144 3.84203C138.919 7.60932 138.27 12.647 135.665 15.3246L95.9874 56.1022L155.883 8.34756C158.711 6.09285 162.315 7.31942 164.073 11.1351C165.831 14.9507 165.125 20.0122 162.467 22.6377L118.096 66.4827L198.048 2.411C200.783 0.218768 204.27 1.28312 206.093 4.8667C207.915 8.45028 207.474 13.3733 205.074 16.2252L202.279 19.5457C202.028 20.2375 201.704 20.8907 201.309 21.4837L189.34 39.4619L229.283 8.30801C230.174 7.61288 231.141 7.2604 232.101 7.22335L232.294 7.06956C235.039 4.88556 238.53 5.97273 240.342 9.57597C242.153 13.1792 241.687 18.108 239.268 20.939L214.619 49.7763L215.089 49.4005L229.139 37.7293C229.699 37.2636 230.293 36.9367 230.899 36.7421L275.372 1.13517C278.18 -1.11283 281.762 0.0747408 283.538 3.84203C285.313 7.60932 284.664 12.647 282.058 15.3246L242.381 56.1022L302.277 8.34756C305.105 6.09285 308.708 7.31942 310.466 11.1351C312.224 14.9507 311.518 20.0122 308.861 22.6377L264.489 66.4827L344.441 2.411C347.177 0.218768 350.664 1.28312 352.486 4.8667C354.309 8.45028 353.867 13.3733 351.467 16.2252L348.079 20.2507C347.882 20.6834 347.655 21.0964 347.397 21.4837L335.098 39.9578L375.677 8.30801C376.463 7.69454 377.308 7.34795 378.156 7.24951L378.382 7.06956C381.127 4.88556 384.618 5.97273 386.429 9.57597C388.241 13.1792 387.775 18.108 385.356 20.939L360.707 49.7763L369.621 42.6393L375.532 37.7293C375.903 37.4207 376.29 37.173 376.684 36.9844L421.46 1.13517C424.268 -1.11283 427.85 0.0747408 429.625 3.84203C431.401 7.60932 430.752 12.647 428.146 15.3246L388.469 56.1022L448.365 8.34756C451.193 6.09285 454.796 7.31942 456.554 11.1351C458.312 14.9507 457.606 20.0122 454.949 22.6377L410.577 66.4827L490.529 2.411C493.265 0.218768 496.751 1.28312 498.574 4.8667C500.397 8.45028 499.955 13.3733 497.555 16.2252L494.167 20.2507C493.97 20.6834 493.743 21.0964 493.485 21.4837L481.186 39.9578L521.764 8.30801C522.551 7.69454 523.396 7.34795 524.243 7.24951L524.47 7.06956C527.215 4.88556 530.705 5.97273 532.517 9.57597C534.329 13.1792 533.863 18.108 531.443 20.939L506.795 49.7763L515.709 42.6395L521.62 37.7293C521.991 37.4207 522.377 37.173 522.772 36.9844L567.548 1.13517C570.356 -1.11283 573.938 0.0747408 575.713 3.84203C577.488 7.60932 576.839 12.647 574.234 15.3246L534.557 56.1022L594.452 8.34756C597.28 6.09285 600.884 7.31942 602.642 11.1351C604.4 14.9507 603.694 20.0122 601.037 22.6377L556.665 66.4828L636.617 2.411C639.352 0.218768 642.839 1.28312 644.662 4.8667C646.485 8.45028 646.043 13.3733 643.643 16.2252L640.255 20.2507C640.058 20.6834 639.831 21.0964 639.573 21.4837L627.273 39.9578L667.852 8.30801C668.639 7.69454 669.484 7.34794 670.331 7.24951L670.558 7.06956C673.303 4.88556 676.793 5.97273 678.605 9.57597C680.417 13.1792 679.951 18.108 677.531 20.939L652.883 49.7762L661.798 42.6382L667.708 37.7293C668.079 37.4207 668.465 37.173 668.86 36.9844L713.636 1.13517C716.444 -1.11283 720.026 0.0747408 721.801 3.84203C723.576 7.60932 722.927 12.647 720.322 15.3246L680.644 56.1022L740.54 8.34756C743.368 6.09285 746.972 7.31942 748.73 11.1351C750.488 14.9507 749.781 20.0122 747.124 22.6377L702.753 66.4826L782.705 2.411C785.44 0.218768 788.927 1.28312 790.75 4.8667C792.572 8.45028 792.131 13.3733 789.731 16.2252L786.343 20.2507C786.146 20.6833 785.918 21.0964 785.661 21.4837L773.361 39.9579L813.94 8.30801C814.727 7.69454 815.572 7.34794 816.419 7.24951L816.645 7.06956C819.39 4.88556 822.881 5.97273 824.693 9.57597C826.505 13.1792 826.039 18.108 823.619 20.939L798.971 49.7762L807.887 42.6378L813.796 37.7293C814.167 37.4207 814.553 37.173 814.948 36.9844L859.724 1.13517C862.532 -1.11283 866.114 0.0747408 867.889 3.84203C869.664 7.60932 869.015 12.647 866.41 15.3246L826.732 56.1022L886.628 8.34756C889.456 6.09285 893.06 7.31942 894.818 11.1351C896.576 14.9507 895.869 20.0122 893.212 22.6377L848.841 66.4826L928.793 2.411C931.528 0.218768 935.015 1.28312 936.838 4.8667C938.66 8.45028 938.219 13.3733 935.818 16.2252L932.431 20.2507C932.234 20.6833 932.006 21.0964 931.748 21.4837L919.449 39.9579L960.028 8.30801C960.814 7.69454 961.659 7.34794 962.507 7.24951L962.733 7.06956C965.478 4.88556 968.969 5.97273 970.781 9.57597C972.592 13.1792 972.127 18.108 969.707 20.939L945.059 49.7762L953.974 42.6378L959.883 37.7293C960.255 37.4207 960.641 37.173 961.036 36.9844L1005.81 1.13517C1008.62 -1.11283 1012.2 0.0747408 1013.98 3.84203C1015.75 7.60932 1015.1 12.647 1012.5 15.3246L972.82 56.1022L1032.72 8.34756C1035.54 6.09285 1039.15 7.31942 1040.91 11.1351C1042.66 14.9507 1041.96 20.0122 1039.3 22.6377L994.929 66.4826L1074.88 2.411C1077.62 0.218768 1081.1 1.28312 1082.93 4.8667C1084.75 8.45028 1084.31 13.3733 1081.91 16.2252L1078.52 20.2507C1078.32 20.6833 1078.09 21.0964 1077.84 21.4837L1065.54 39.9579L1106.12 8.30801C1106.9 7.69454 1107.75 7.34794 1108.59 7.24951L1108.82 7.06956C1111.57 4.88556 1115.06 5.97273 1116.87 9.57597C1118.68 13.1792 1118.21 18.108 1115.79 20.939L1091.15 49.7762L1100.06 42.6378L1105.97 37.7293C1106.34 37.4207 1106.73 37.173 1107.12 36.9844L1151.9 1.13517C1154.71 -1.11283 1158.29 0.0747408 1160.06 3.84203C1161.84 7.60932 1161.19 12.647 1158.59 15.3246L1118.91 56.1022L1178.8 8.34756C1181.63 6.09285 1185.24 7.31942 1186.99 11.1351C1188.75 14.9507 1188.04 20.0122 1185.39 22.6377L1141.02 66.4826L1220.97 2.411C1223.7 0.218768 1227.19 1.28312 1229.01 4.8667C1230.84 8.45028 1230.39 13.3733 1227.99 16.2252L1224.61 20.2507C1224.41 20.6833 1224.18 21.0964 1223.92 21.4837L1211.62 39.9579L1252.2 8.30801C1252.99 7.69454 1253.84 7.34794 1254.68 7.24951L1254.91 7.06956C1257.65 4.88556 1261.14 5.97273 1262.96 9.57597C1264.77 13.1792 1264.3 18.108 1261.88 20.939L1237.23 49.7762L1246.15 42.6378L1252.06 37.7293C1252.43 37.4207 1252.82 37.173 1253.21 36.9844L1297.99 1.13517C1300.79 -1.11283 1304.38 0.0747408 1306.15 3.84203C1307.93 7.60932 1307.28 12.647 1304.67 15.3246L1265 56.1022L1324.89 8.34756C1327.72 6.09285 1331.32 7.31942 1333.08 11.1351C1334.84 14.9507 1334.13 20.0122 1331.48 22.6377L1287.1 66.4828L1367.06 2.411C1369.79 0.218768 1373.28 1.28312 1375.1 4.8667C1376.92 8.45028 1376.48 13.3733 1374.08 16.2252L1347.23 48.1375L1398.29 8.30801C1401.08 6.13212 1404.61 7.31356 1406.38 11.0174C1408.14 14.7212 1407.56 19.6944 1405.03 22.4223L1366.57 63.9613L1398.15 37.7293C1400.89 35.4517 1404.43 36.4919 1406.27 40.1165C1408.12 43.7411 1407.64 48.7276 1405.18 51.5601L1376.95 84.0726L1393.66 70.7763C1396.33 68.6507 1399.72 69.6165 1401.58 73.0305C1403.43 76.4446 1403.17 81.2418 1400.97 84.2282L1385.28 105.491L1390.28 101.989C1392.86 100.188 1395.99 101.13 1397.79 104.251C1399.6 107.372 1399.59 111.823 1397.78 114.932L1386.61 134.021L1398.23 124.724C1400.91 122.582 1404.32 123.553 1406.17 126.986C1408.03 130.419 1407.75 135.236 1405.52 138.21L1390.07 158.833L1398.24 152.323C1400.85 150.246 1404.15 151.109 1406.04 154.358C1407.93 157.607 1407.83 162.279 1405.82 165.379L1390.99 188.236L1391.83 187.573C1394.48 185.46 1397.85 186.395 1399.71 189.763C1401.57 193.13 1401.36 197.894 1399.21 200.915L1383.02 223.669L1400.98 209.248C1403.73 207.033 1407.25 208.133 1409.06 211.775C1410.87 215.418 1410.37 220.382 1407.9 223.182L1374.93 260.596L1401.09 240.589C1403.78 238.528 1407.16 239.571 1408.97 243.025C1410.78 246.479 1410.47 251.266 1408.23 254.203L1391.09 276.729L1393.61 274.675C1396.53 272.307 1400.27 273.669 1401.97 277.719C1403.68 281.768 1402.7 286.971 1399.78 289.339L1351.19 328.837C1348.51 331.017 1345.08 330.055 1343.21 326.6C1341.35 323.146 1341.65 318.298 1343.91 315.333L1365.08 287.522L1322.02 320.453C1319.25 322.571 1315.77 321.405 1314 317.765C1312.24 314.124 1312.76 309.21 1315.2 306.432L1341.37 276.737L1279.65 326.311C1277.05 328.401 1273.74 327.553 1271.84 324.311C1269.95 321.069 1270.03 316.396 1272.04 313.287L1286.26 291.24L1249.68 320.38C1246.95 322.555 1243.48 321.494 1241.65 317.93C1239.83 314.365 1240.26 309.461 1242.63 306.595L1268.79 275.054L1256.34 284.978C1255.86 286.748 1254.96 288.311 1253.7 289.339L1205.1 328.837C1202.42 331.017 1198.99 330.055 1197.13 326.6C1196.52 325.471 1196.14 324.194 1195.98 322.882C1194.57 319.127 1195.37 314.44 1197.92 311.981L1207.16 303.058L1218.54 288.112L1184.59 315.276C1183.54 316.119 1182.37 316.479 1181.23 316.398L1175.93 320.453C1173.16 322.571 1169.69 321.405 1167.92 317.765C1166.15 314.124 1166.67 309.21 1169.12 306.432L1195.29 276.737L1133.56 326.311C1130.96 328.401 1127.65 327.553 1125.76 324.311C1123.86 321.069 1123.94 316.396 1125.95 313.287L1140.17 291.24L1103.59 320.38C1100.86 322.555 1097.39 321.494 1095.57 317.93C1093.74 314.365 1094.17 309.461 1096.54 306.595L1122.7 275.055L1110.25 284.978C1109.78 286.748 1108.87 288.311 1107.61 289.339L1059.02 328.837C1056.33 331.017 1052.9 330.055 1051.04 326.6C1050.43 325.471 1050.05 324.194 1049.9 322.882C1048.49 319.127 1049.28 314.44 1051.83 311.981L1061.07 303.058L1072.45 288.112L1038.5 315.276C1037.45 316.119 1036.28 316.479 1035.14 316.398L1029.84 320.453C1027.07 322.571 1023.6 321.405 1021.83 317.765C1020.06 314.124 1020.58 309.21 1023.03 306.432L1049.2 276.737L987.472 326.311C984.87 328.401 981.562 327.553 979.668 324.311C977.774 321.069 977.856 316.396 979.862 313.287L994.086 291.24L957.502 320.38C954.772 322.555 951.301 321.494 949.479 317.93C947.657 314.365 948.08 309.461 950.456 306.595L976.615 275.055L964.162 284.978C963.687 286.748 962.787 288.311 961.521 289.339L912.927 328.837C910.246 331.017 906.814 330.055 904.95 326.6C904.342 325.471 903.963 324.194 903.809 322.882C902.398 319.127 903.196 314.44 905.743 311.981L914.986 303.058L926.363 288.112L892.414 315.276C891.36 316.119 890.194 316.479 889.055 316.398L883.754 320.453C880.985 322.571 877.51 321.405 875.741 317.765C873.972 314.124 874.493 309.21 876.941 306.432L903.11 276.737L841.384 326.311C838.782 328.401 835.474 327.553 833.58 324.311C831.686 321.069 831.768 316.396 833.774 313.287L847.998 291.24L811.414 320.38C808.684 322.555 805.213 321.494 803.391 317.93C801.569 314.365 801.992 309.461 804.368 306.595L830.528 275.055L818.074 284.978C817.599 286.748 816.699 288.311 815.434 289.339L766.839 328.837C764.158 331.017 760.726 330.055 758.863 326.6C758.254 325.471 757.876 324.194 757.721 322.882C756.31 319.127 757.108 314.44 759.655 311.981L768.898 303.058L780.275 288.112L746.327 315.276C745.272 316.119 744.106 316.479 742.967 316.398L737.666 320.453C734.897 322.571 731.422 321.405 729.653 317.765C727.885 314.124 728.405 309.21 730.853 306.432L757.022 276.737L695.296 326.311C692.695 328.401 689.386 327.553 687.492 324.311C685.598 321.069 685.681 316.396 687.686 313.287L701.91 291.24L665.326 320.38C662.597 322.555 659.125 321.494 657.303 317.93C655.481 314.365 655.904 309.461 658.281 306.595L684.44 275.055L671.986 284.978C671.512 286.748 670.611 288.311 669.346 289.339L620.752 328.837C618.07 331.017 614.638 330.055 612.775 326.6C612.166 325.471 611.788 324.194 611.633 322.882C610.222 319.127 611.02 314.44 613.567 311.981L622.81 303.058L634.187 288.112L600.239 315.276C599.184 316.119 598.018 316.479 596.88 316.398L591.578 320.453C588.809 322.571 585.335 321.405 583.566 317.765C581.797 314.124 582.317 309.21 584.765 306.432L610.935 276.737L549.208 326.311C546.607 328.401 543.298 327.553 541.404 324.311C539.51 321.069 539.593 316.396 541.599 313.287L555.823 291.24L519.238 320.38C516.509 322.555 513.037 321.494 511.215 317.93C509.393 314.365 509.816 309.461 512.193 306.595L538.352 275.055L525.898 284.978C525.424 286.748 524.523 288.311 523.258 289.339L474.664 328.837C471.982 331.017 468.55 330.055 466.687 326.6C466.078 325.471 465.7 324.194 465.545 322.882C464.134 319.127 464.932 314.44 467.479 311.981L476.722 303.058L488.099 288.112L454.151 315.276C453.097 316.119 451.931 316.479 450.792 316.398L445.491 320.453C442.721 322.571 439.247 321.405 437.478 317.765C435.709 314.124 436.229 309.21 438.677 306.432L464.847 276.737L403.12 326.311C400.519 328.401 397.21 327.553 395.317 324.311C393.423 321.069 393.505 316.396 395.511 313.287L409.735 291.24L373.15 320.38C370.421 322.555 366.949 321.494 365.127 317.93C363.305 314.365 363.728 309.461 366.105 306.595L392.264 275.055L379.811 284.978C379.336 286.748 378.435 288.311 377.17 289.339L328.576 328.837C325.894 331.017 322.463 330.055 320.599 326.6C319.99 325.471 319.612 324.194 319.458 322.882C318.046 319.127 318.844 314.44 321.391 311.981L330.634 303.058L342.011 288.112L308.063 315.276C307.009 316.119 305.843 316.479 304.704 316.398L299.403 320.453C296.634 322.571 293.159 321.405 291.39 317.765C289.621 314.124 290.141 309.21 292.59 306.432L318.759 276.737L257.033 326.311C254.431 328.401 251.123 327.553 249.229 324.311C247.335 321.069 247.417 316.396 249.423 313.287L263.647 291.24L227.063 320.38C224.333 322.555 220.861 321.494 219.04 317.93C217.218 314.365 217.641 309.461 220.017 306.595L246.176 275.055L203.854 308.777L182.487 328.573C179.845 331.021 176.294 330.249 174.315 326.798C173.44 325.27 173.001 323.442 172.984 321.617C172.154 318.125 173.036 314.17 175.303 311.981L183.394 304.17L195.142 288.737L161.975 315.276C160.837 316.186 159.57 316.533 158.346 316.371L153.009 320.453C150.24 322.571 146.765 321.405 144.997 317.765C143.228 314.124 143.748 309.21 146.196 306.432L172.366 276.737L110.639 326.311C108.038 328.401 104.729 327.553 102.835 324.311C100.941 321.069 101.024 316.396 103.029 313.287L117.253 291.24L80.6692 320.38C77.9395 322.555 74.468 321.494 72.6461 317.93C70.8242 314.365 71.2472 309.461 73.6237 306.595L99.7828 275.055L35.4378 326.326C32.5984 328.588 28.9805 327.341 27.2311 323.497C25.4818 319.653 26.2219 314.576 28.9099 311.981L73.5171 268.918L15.5819 315.276C12.8462 317.465 9.36105 316.399 7.53955 312.816C5.71805 309.233 6.15944 304.312 8.55811 301.46L36.4408 268.31L41.0803 264.393L22.2687 279.205C19.512 281.375 16.0189 280.259 14.2216 276.633C12.4244 273.007 12.9188 268.073 15.3607 265.268L39.0272 238.077L20.4594 252.853C17.6867 255.06 14.159 253.927 12.3645 250.253C10.5699 246.58 11.1141 241.605 13.6132 238.839L31.9139 218.58L12.12 229.971C9.29354 231.598 6.03702 230.07 4.49825 226.396C2.95947 222.722 3.61239 218.032 6.02638 215.421L26.5302 193.24L13.7693 199.918C10.9926 201.371 7.86595 199.844 6.35472 196.296C4.8435 192.747 5.38422 188.203 7.63699 185.52L35.6223 152.186L12.8347 170.447C10.0081 172.712 6.39955 171.493 4.63709 167.677C2.87463 163.861 3.57979 158.794 6.23902 156.166L52.9947 109.966L10.6837 143.7C7.87484 145.94 4.29659 144.746 2.52508 140.979C0.753566 137.212 1.40364 132.179 4.00727 129.503L42.34 90.1075L14.6664 112.264C11.9228 114.461 8.42627 113.382 6.60917 109.779C4.79207 106.175 5.25601 101.24 7.67824 98.406L33.129 68.6301L11.9013 85.5189C9.28208 87.6027 5.96044 86.7181 4.08125 83.4361C2.20206 80.1542 2.32791 75.4575 4.37754 72.3789L20.7457 47.7932L14.533 52.4838C12.6016 53.942 10.2556 53.8469 8.38869 52.2347C6.52178 50.6225 5.42152 47.7415 5.50709 44.6894L6.04553 25.4846C3.87061 25.4483 1.77912 23.796 0.699096 20.9307C-0.867308 16.7751 0.287075 11.6417 3.27748 9.46494L9.69557 4.79315C11.6279 3.38655 13.9533 3.51766 15.7973 5.13717C17.6414 6.75669 18.7245 9.61912 18.6396 12.6482L18.1412 30.4258L47.511 8.2515C50.1403 6.26635 53.4173 7.21826 55.2542 10.5008C57.0912 13.7833 56.9479 18.4313 54.9158 21.4837L40.4245 43.2503L85.9006 7.06956C88.6457 4.88556 92.1364 5.97273 93.9481 9.57597C95.7598 13.1792 95.294 18.108 92.8743 20.939L68.2258 49.7763L128.979 1.13517C131.787 -1.11283 135.369 0.0747408 137.144 3.84203ZM63.3004 175.49L61.4947 176.944L61.3092 177.144L63.3004 175.49Z" fill="#434234"/>
</svg>
