<svg width="263" height="258" viewBox="0 0 263 258" fill="none" xmlns="http://www.w3.org/2000/svg">
<path d="M4.42727 7.75604C1.1875 9.45306 -0.0631442 13.4551 1.63388 16.6949C3.3309 19.9347 7.33296 21.1853 10.5727 19.4883L7.5 13.6222L4.42727 7.75604ZM14.4533 9.97997L21.0704 10.2378C21.1624 7.87624 19.9889 5.64465 17.9911 4.38205C15.9933 3.11946 13.4741 3.01725 11.3805 4.11385L14.4533 9.97997ZM13.4599 35.4753L6.8428 35.2175C6.7501 37.597 7.9421 39.843 9.96468 41.0999C11.9873 42.3568 14.5289 42.4309 16.6213 41.2941L13.4599 35.4753ZM55.5107 12.6288L60.3716 17.126C62.5732 14.7464 62.7283 11.1227 60.7382 8.56361C58.7481 6.0045 55.1979 5.26237 52.3493 6.81002L55.5107 12.6288ZM10.48 61.3017L5.61906 56.8046C3.39852 59.2047 3.26217 62.8663 5.29806 65.4249C7.33395 67.9836 10.9326 68.6733 13.7702 67.0487L10.48 61.3017ZM97.2303 11.6355L101.495 16.7014C104.117 14.4943 104.621 10.6517 102.659 7.8426C100.696 5.03347 96.9141 4.18589 93.9401 5.88857L97.2303 11.6355ZM13.4599 82.1615L9.19499 77.0957C6.57078 79.305 6.06816 83.1526 8.03678 85.9618C10.0054 88.7711 13.7935 89.612 16.7658 87.8995L13.4599 82.1615ZM143.917 7L147.854 12.3243C150.677 10.2368 151.38 6.30938 149.457 3.37235C147.534 0.435315 143.653 -0.49053 140.611 1.26204L143.917 7ZM9.15554 106.664L5.21791 101.339C2.39717 103.425 1.69289 107.349 3.61212 110.286C5.53135 113.223 9.40799 114.153 12.451 112.407L9.15554 106.664ZM173.054 12.6288L176.892 18.0257C179.77 15.9788 180.536 12.0328 178.631 9.0581C176.726 6.08336 172.822 5.12711 169.759 6.88491L173.054 12.6288ZM11.4733 127.523L7.63576 122.126C4.75479 124.175 3.99083 128.125 5.90025 131.1C7.80967 134.075 11.7191 135.026 14.7815 133.26L11.4733 127.523ZM218.747 7.99332L223.051 13.0264C225.651 10.803 226.129 6.96499 224.155 4.17119C222.18 1.37738 218.402 0.5476 215.439 2.25669L218.747 7.99332ZM13.4599 150.039L9.1503 145.011C6.70968 147.103 6.12387 150.645 7.76111 153.412C9.39836 156.178 12.7858 157.369 15.794 156.236L13.4599 150.039ZM252.52 12.6288L256.583 17.8578C259.32 15.731 259.954 11.8539 258.037 8.96635C256.12 6.07879 252.301 5.15772 249.279 6.85408L252.52 12.6288ZM11.4733 173.547L7.40539 168.322C4.79011 170.358 4.08274 174.014 5.74983 176.878C7.41692 179.743 10.945 180.934 14.0071 179.666L11.4733 173.547ZM252.52 35.4753L256.746 40.574C259.41 38.3657 259.925 34.4782 257.927 31.6524C255.929 28.8266 252.093 28.0156 249.122 29.7913L252.52 35.4753ZM19.751 191.758L15.6249 186.579C12.9174 188.736 12.3278 192.614 14.272 195.478C16.2162 198.342 20.0381 199.225 23.0419 197.505L19.751 191.758ZM247.553 61.3017L252.177 66.0425C254.564 63.7143 254.848 59.9742 252.839 57.3126C250.831 54.651 247.156 53.8981 244.262 55.5552L247.553 61.3017ZM21.7377 212.287L17.518 207.183C14.8726 209.371 14.3369 213.217 16.284 216.043C18.2312 218.87 22.0156 219.741 25.0021 218.049L21.7377 212.287ZM243.58 85.8037L248.72 89.9796C250.689 87.5559 250.697 84.0858 248.74 81.6526C246.782 79.2195 243.391 78.4846 240.602 79.8892L243.58 85.8037ZM14.4533 240.431L10.1482 235.399C7.54955 237.623 7.07135 241.459 9.04474 244.252C11.0181 247.046 14.7939 247.877 17.7577 246.17L14.4533 240.431ZM252.52 103.352L257.108 108.128C259.522 105.809 259.825 102.054 257.816 99.377C255.807 96.7002 252.116 95.9435 249.216 97.6137L252.52 103.352ZM35.9753 249.04L32.1971 243.601C29.285 245.624 28.4831 249.582 30.3784 252.579C32.2736 255.576 36.1932 256.549 39.2693 254.785L35.9753 249.04ZM252.52 124.874L257.438 129.309C259.618 126.892 259.718 123.249 257.674 120.716C255.631 118.183 252.049 117.511 249.226 119.13L252.52 124.874ZM84.9793 244.405L80.6395 239.403C78.0648 241.637 77.6065 245.46 79.5803 248.239C81.5541 251.018 85.3151 251.845 88.2725 250.15L84.9793 244.405ZM245.567 152.356L250.275 157.013C252.604 154.658 252.835 150.944 250.816 148.319C248.796 145.693 245.147 144.964 242.274 146.611L245.567 152.356ZM117.428 249.04L112.497 244.619C110.324 247.043 110.235 250.687 112.287 253.214C114.339 255.741 117.923 256.402 120.742 254.774L117.428 249.04ZM255.5 169.243L259.688 174.372C262.362 172.19 262.91 168.32 260.949 165.48C258.988 162.64 255.174 161.783 252.186 163.509L255.5 169.243ZM163.452 244.405L159.264 239.275C156.611 241.441 156.047 245.272 157.964 248.11C159.88 250.949 163.645 251.857 166.645 250.206L163.452 244.405ZM255.5 193.745L260.049 198.557C262.471 196.268 262.814 192.535 260.85 189.842C258.886 187.15 255.227 186.336 252.307 187.943L255.5 193.745ZM194.907 251.027L190.358 246.214C187.912 248.527 187.59 252.306 189.609 254.999C191.627 257.692 195.345 258.442 198.251 256.743L194.907 251.027ZM247.553 220.234L253.637 222.85C254.767 220.223 254.082 217.166 251.939 215.272C249.796 213.378 246.679 213.073 244.21 214.517L247.553 220.234ZM234.309 251.027L228.226 248.41C227.16 250.888 227.704 253.764 229.6 255.682C231.496 257.601 234.366 258.177 236.856 257.139L234.309 251.027ZM252.749 250.517C256.125 249.111 257.722 245.234 256.315 241.858C254.908 238.482 251.031 236.885 247.655 238.292L250.202 244.405L252.749 250.517ZM57.4973 112.292L54.2421 106.526L53.6788 106.843L53.1877 107.264L57.4973 112.292ZM173.054 47.0641L176.309 52.8309L176.869 52.5149L177.358 52.0971L173.054 47.0641ZM197.556 55.3418L200.875 61.0721L201.264 60.8467L201.62 60.5707L197.556 55.3418ZM63.7884 132.821L60.4693 127.091L60.0776 127.318L59.7205 127.596L63.7884 132.821ZM78.3571 145.072L75.1541 139.276L74.6666 139.545L74.231 139.892L78.3571 145.072ZM204.178 75.5394L207.381 81.3354L207.925 81.0347L208.404 80.6381L204.178 75.5394ZM148.552 140.437L151.816 146.198L151.975 146.108L152.129 146.009L148.552 140.437ZM197.556 108.981L194.578 103.067L194.269 103.222L193.979 103.408L197.556 108.981ZM130.01 205.334L126.697 199.6L126.149 199.917L125.67 200.332L130.01 205.334ZM234.309 145.072L237.622 150.806L238.527 150.283L239.227 149.507L234.309 145.072ZM218.747 135.801L222.015 141.56L222.737 141.151L223.335 140.576L218.747 135.801ZM110.806 197.056L107.537 191.297L107.275 191.445L107.028 191.617L110.806 197.056ZM44.253 214.936L40.8149 209.276L40.356 209.555L39.948 209.904L44.253 214.936ZM230.667 101.697L234.105 107.357L235.084 106.762L235.806 105.873L230.667 101.697ZM220.734 87.4593L224.03 93.2029L224.757 92.7856L225.357 92.2L220.734 87.4593ZM63.7884 177.521L60.4924 171.777L60.0034 172.058L59.5688 172.417L63.7884 177.521ZM44.253 159.972L46.7868 166.09L47.2347 165.905L47.6508 165.656L44.253 159.972ZM38.9553 140.437L41.2893 146.634L42.1401 146.313L42.873 145.775L38.9553 140.437ZM84.9793 106.664L81.7381 100.889L81.3866 101.086L81.0615 101.325L84.9793 106.664ZM216.098 182.156L219.166 188.025L220.081 187.547L220.807 186.813L216.098 182.156ZM143.254 220.234L140.187 214.365L139.124 214.92L138.324 215.813L143.254 220.234ZM7.5 13.6222L10.5727 19.4883L17.526 15.8461L14.4533 9.97997L11.3805 4.11385L4.42727 7.75604L7.5 13.6222ZM14.4533 9.97997L7.83613 9.72216L6.8428 35.2175L13.4599 35.4753L20.0771 35.7331L21.0704 10.2378L14.4533 9.97997ZM13.4599 35.4753L16.6213 41.2941L58.6721 18.4477L55.5107 12.6288L52.3493 6.81002L10.2985 29.6565L13.4599 35.4753ZM55.5107 12.6288L50.6498 8.13166L5.61906 56.8046L10.48 61.3017L15.3409 65.7989L60.3716 17.126L55.5107 12.6288ZM10.48 61.3017L13.7702 67.0487L100.521 17.3825L97.2303 11.6355L93.9401 5.88857L7.18974 55.5548L10.48 61.3017ZM97.2303 11.6355L92.9654 6.56963L9.19499 77.0957L13.4599 82.1615L17.7249 87.2274L101.495 16.7014L97.2303 11.6355ZM13.4599 82.1615L16.7658 87.8995L147.222 12.738L143.917 7L140.611 1.26204L10.1541 76.4236L13.4599 82.1615ZM143.917 7L139.979 1.6757L5.21791 101.339L9.15554 106.664L13.0932 111.988L147.854 12.3243L143.917 7ZM9.15554 106.664L12.451 112.407L176.35 18.3728L173.054 12.6288L169.759 6.88491L5.86004 100.92L9.15554 106.664ZM173.054 12.6288L169.217 7.23195L7.63576 122.126L11.4733 127.523L15.3108 132.92L176.892 18.0257L173.054 12.6288ZM11.4733 127.523L14.7815 133.26L222.055 13.73L218.747 7.99332L215.439 2.25669L8.16511 121.787L11.4733 127.523ZM19.751 191.758L23.0419 197.505L250.844 67.0483L247.553 61.3017L244.262 55.5552L16.4601 186.012L19.751 191.758ZM14.4533 240.431L17.7577 246.17L255.824 109.091L252.52 103.352L249.216 97.6137L11.1489 234.692L14.4533 240.431ZM35.9753 249.04L39.2693 254.785L255.814 130.619L252.52 124.874L249.226 119.13L32.6813 243.295L35.9753 249.04ZM84.9793 244.405L88.2725 250.15L248.86 158.102L245.567 152.356L242.274 146.611L81.6861 238.659L84.9793 244.405ZM117.428 249.04L120.742 254.774L258.814 174.976L255.5 169.243L252.186 163.509L114.114 243.307L117.428 249.04ZM255.5 169.243L251.312 164.114L159.264 239.275L163.452 244.405L167.64 249.534L259.688 174.372L255.5 169.243ZM163.452 244.405L166.645 250.206L258.693 199.547L255.5 193.745L252.307 187.943L160.259 238.603L163.452 244.405ZM255.5 193.745L250.951 188.933L190.358 246.214L194.907 251.027L199.456 255.839L260.049 198.557L255.5 193.745ZM194.907 251.027L198.251 256.743L250.897 225.95L247.553 220.234L244.21 214.517L191.564 245.311L194.907 251.027ZM247.553 220.234L241.47 217.617L228.226 248.41L234.309 251.027L240.392 253.643L253.637 222.85L247.553 220.234ZM234.309 251.027L236.856 257.139L252.749 250.517L250.202 244.405L247.655 238.292L231.762 244.914L234.309 251.027ZM57.4973 112.292L53.1877 107.264L9.1503 145.011L13.4599 150.039L17.7696 155.067L61.807 117.32L57.4973 112.292ZM218.747 7.99332L214.443 2.96026L168.75 42.031L173.054 47.0641L177.358 52.0971L223.051 13.0264L218.747 7.99332ZM173.054 47.0641L169.799 41.2972L54.2421 106.526L57.4973 112.292L60.7525 118.059L176.309 52.8309L173.054 47.0641ZM252.52 12.6288L248.457 7.39992L193.493 50.1129L197.556 55.3418L201.62 60.5707L256.583 17.8578L252.52 12.6288ZM197.556 55.3418L194.237 49.6114L60.4693 127.091L63.7884 132.821L67.1074 138.551L200.875 61.0721L197.556 55.3418ZM63.7884 132.821L59.7205 127.596L7.40539 168.322L11.4733 173.547L15.5412 178.773L67.8563 138.047L63.7884 132.821ZM78.3571 145.072L74.231 139.892L15.6249 186.579L19.751 191.758L23.8771 196.938L82.4833 150.252L78.3571 145.072ZM252.52 35.4753L248.294 30.3766L199.953 70.4407L204.178 75.5394L208.404 80.6381L256.746 40.574L252.52 35.4753ZM204.178 75.5394L200.975 69.7434L75.1541 139.276L78.3571 145.072L81.5602 150.868L207.381 81.3354L204.178 75.5394ZM21.7377 212.287L25.0021 218.049L151.816 146.198L148.552 140.437L145.288 134.675L18.4732 206.525L21.7377 212.287ZM148.552 140.437L152.129 146.009L201.133 114.554L197.556 108.981L193.979 103.408L144.975 134.864L148.552 140.437ZM197.556 108.981L200.535 114.896L246.559 91.7182L243.58 85.8037L240.602 79.8892L194.578 103.067L197.556 108.981ZM130.01 205.334L125.67 200.332L80.6395 239.403L84.9793 244.405L89.3192 249.406L134.35 210.336L130.01 205.334ZM252.52 124.874L247.602 120.44L229.391 140.638L234.309 145.072L239.227 149.507L257.438 129.309L252.52 124.874ZM234.309 145.072L230.996 139.338L126.697 199.6L130.01 205.334L133.323 211.068L237.622 150.806L234.309 145.072ZM252.52 103.352L247.932 98.5772L214.159 131.026L218.747 135.801L223.335 140.576L257.108 108.128L252.52 103.352ZM218.747 135.801L215.479 130.042L107.537 191.297L110.806 197.056L114.074 202.815L222.015 141.56L218.747 135.801ZM110.806 197.056L107.028 191.617L32.1971 243.601L35.9753 249.04L39.7535 254.479L114.584 202.495L110.806 197.056ZM44.253 214.936L39.948 209.904L10.1482 235.399L14.4533 240.431L18.7583 245.463L48.558 219.968L44.253 214.936ZM243.58 85.8037L238.441 81.6278L225.527 97.521L230.667 101.697L235.806 105.873L248.72 89.9796L243.58 85.8037ZM230.667 101.697L227.229 96.0372L40.8149 209.276L44.253 214.936L47.6911 220.596L234.105 107.357L230.667 101.697ZM247.553 61.3017L242.93 56.561L216.11 82.7185L220.734 87.4593L225.357 92.2L252.177 66.0425L247.553 61.3017ZM220.734 87.4593L217.438 81.7156L60.4924 171.777L63.7884 177.521L67.0843 183.264L224.03 93.2029L220.734 87.4593ZM63.7884 177.521L59.5688 172.417L17.518 207.183L21.7377 212.287L25.9573 217.391L68.008 182.624L63.7884 177.521ZM11.4733 173.547L14.0071 179.666L46.7868 166.09L44.253 159.972L41.7192 153.854L8.93948 167.429L11.4733 173.547ZM44.253 159.972L47.6508 165.656L255.918 41.1593L252.52 35.4753L249.122 29.7913L40.8552 154.288L44.253 159.972ZM13.4599 150.039L15.794 156.236L41.2893 146.634L38.9553 140.437L36.6213 134.239L11.1259 143.841L13.4599 150.039ZM38.9553 140.437L42.873 145.775L88.8971 112.002L84.9793 106.664L81.0615 101.325L35.0375 135.098L38.9553 140.437ZM84.9793 106.664L88.2205 112.438L255.761 18.4036L252.52 12.6288L249.279 6.85408L81.7381 100.889L84.9793 106.664ZM245.567 152.356L240.858 147.7L211.389 177.5L216.098 182.156L220.807 186.813L250.275 157.013L245.567 152.356ZM216.098 182.156L213.03 176.287L140.187 214.365L143.254 220.234L146.322 226.102L219.166 188.025L216.098 182.156ZM143.254 220.234L138.324 215.813L112.497 244.619L117.428 249.04L122.359 253.461L148.185 224.654L143.254 220.234Z" fill="#434234"/>
</svg>
