<svg width="536" height="239" viewBox="0 0 536 239" fill="none" xmlns="http://www.w3.org/2000/svg">
<path fill-rule="evenodd" clip-rule="evenodd" d="M137.756 2.77709C139.539 5.50015 138.887 9.14148 136.27 11.0769L96.4156 40.5516L156.579 6.03376C159.419 4.40401 163.039 5.29061 164.805 8.04863C166.571 10.8066 165.861 14.4651 163.192 16.3629L118.623 48.0548L198.931 1.74271C201.679 0.158129 205.181 0.927462 207.012 3.51773C208.843 6.10801 208.399 9.66643 205.988 11.7278L203.182 14.128C202.929 14.628 202.604 15.1002 202.207 15.5288L190.185 28.5238L230.306 6.00517C231.201 5.50272 232.172 5.24794 233.136 5.22116L233.33 5.11C236.088 3.53136 239.594 4.3172 241.414 6.92168C243.234 9.52616 242.766 13.0888 240.335 15.1351L215.577 35.9791L216.048 35.7077L230.161 27.2714C230.724 26.9348 231.32 26.6985 231.929 26.5578L276.601 0.820519C279.421 -0.804372 283.019 0.054024 284.803 2.77709C286.586 5.50015 285.934 9.14148 283.317 11.0769L243.462 40.5516L303.625 6.03376C306.466 4.40401 310.086 5.29061 311.851 8.04863C313.617 10.8066 312.908 14.4651 310.239 16.3629L265.669 48.0548L345.978 1.74271C348.726 0.158129 352.228 0.927462 354.059 3.51773C355.89 6.10801 355.446 9.66643 353.035 11.7278L349.632 14.6376C349.434 14.9503 349.206 15.2488 348.947 15.5288L336.593 28.8822L377.352 6.00517C378.143 5.56175 378.991 5.31122 379.843 5.24007L380.07 5.11C382.827 3.53136 386.333 4.3172 388.153 6.92168C389.973 9.52616 389.505 13.0888 387.075 15.1351L362.316 35.9791L371.271 30.8202L377.207 27.2714C377.58 27.0483 377.968 26.8693 378.365 26.733L423.34 0.820519C426.161 -0.804372 429.759 0.054024 431.542 2.77709C433.325 5.50015 432.673 9.14148 430.056 11.0769L390.202 40.5516L450.365 6.03376C453.205 4.40401 456.825 5.29061 458.591 8.04863C460.357 10.8066 459.647 14.4651 456.978 16.3629L412.409 48.0548L492.717 1.74271C495.465 0.158129 498.968 0.927462 500.798 3.51773C502.629 6.10801 502.185 9.66643 499.775 11.7278L472.798 34.7946L524.092 6.00517C526.894 4.4324 530.435 5.28637 532.212 7.96356C533.99 10.6408 533.402 14.2354 530.864 16.2072L492.227 46.2325L523.947 27.2714C526.701 25.6251 530.258 26.377 532.11 28.9969C533.963 31.6168 533.485 35.2212 531.015 37.2686L502.659 60.7691L519.441 51.1583C522.124 49.622 525.531 50.32 527.393 52.7877C529.255 55.2555 528.992 58.723 526.779 60.8816L511.021 76.2506L516.047 73.7196C518.633 72.4173 521.777 73.0987 523.592 75.3546C525.407 77.6105 525.399 80.8278 523.574 83.0749L512.363 96.8727L524.033 90.1528C526.723 88.6044 530.144 89.3059 532.007 91.7876C533.87 94.2694 533.589 97.751 531.351 99.9009L515.836 114.807L524.043 110.101C526.661 108.6 529.981 109.224 531.876 111.573C533.77 113.921 533.678 117.298 531.657 119.539L516.761 136.06L517.597 135.581C520.261 134.054 523.644 134.73 525.517 137.164C527.389 139.598 527.175 143.041 525.016 145.225L508.752 161.672L526.788 151.248C529.558 149.647 533.094 150.442 534.912 153.075C536.73 155.708 536.222 159.296 533.743 161.32L500.624 188.363L526.9 173.902C529.607 172.412 532.999 173.166 534.82 175.663C536.641 178.159 536.323 181.62 534.078 183.742L516.855 200.024L519.392 198.54C522.319 196.828 526.08 197.813 527.792 200.74C529.504 203.667 528.519 207.428 525.592 209.14L476.781 237.689C474.088 239.265 470.641 238.569 468.769 236.072C466.897 233.575 467.196 230.072 469.464 227.928L490.728 207.826L447.478 231.629C444.696 233.16 441.206 232.317 439.429 229.686C437.653 227.054 438.175 223.502 440.634 221.494L466.921 200.03L404.919 235.863C402.306 237.374 398.982 236.761 397.08 234.418C395.178 232.075 395.26 228.696 397.275 226.449L411.563 210.513L374.815 231.577C372.073 233.148 368.586 232.382 366.756 229.805C364.926 227.228 365.351 223.683 367.738 221.612L394.014 198.814L381.505 205.987C381.028 207.267 380.123 208.396 378.853 209.14L330.042 237.689C327.348 239.265 323.901 238.569 322.029 236.072C321.418 235.256 321.038 234.333 320.883 233.385C319.465 230.67 320.267 227.282 322.825 225.505L332.109 219.055L343.537 208.252L309.437 227.887C308.378 228.497 307.207 228.757 306.063 228.698L300.739 231.629C297.957 233.16 294.467 232.317 292.69 229.686C290.913 227.054 291.436 223.502 293.895 221.494L320.181 200.03L258.179 235.863C255.566 237.374 252.243 236.761 250.341 234.418C248.438 232.075 248.521 228.696 250.536 226.449L264.823 210.513L228.076 231.577C225.334 233.148 221.847 232.382 220.017 229.805C218.187 227.228 218.612 223.683 220.999 221.612L247.274 198.814L204.764 223.19L183.301 237.498C180.647 239.267 177.08 238.71 175.093 236.215C174.213 235.111 173.773 233.79 173.756 232.47C172.922 229.946 173.808 227.087 176.085 225.505L184.212 219.86L196.012 208.704L162.698 227.887C161.555 228.545 160.282 228.796 159.053 228.678L153.692 231.629C150.91 233.16 147.42 232.317 145.643 229.686C143.866 227.054 144.389 223.502 146.848 221.494L173.134 200.03L111.133 235.863C108.52 237.374 105.196 236.761 103.294 234.418C101.392 232.075 101.474 228.696 103.489 226.449L117.777 210.513L81.0291 231.577C78.2872 233.148 74.8002 232.382 72.9702 229.805C71.1401 227.228 71.565 223.683 73.9521 221.612L100.228 198.814L35.5959 235.874C32.7438 237.509 29.1098 236.608 27.3526 233.829C25.5955 231.051 26.3389 227.381 29.0389 225.505L73.8451 194.379L15.6514 227.887C12.9035 229.469 9.40282 228.698 7.57319 226.109C5.74356 223.519 6.18692 219.962 8.59629 217.901L36.6034 193.939L41.2635 191.108L22.368 201.814C19.5991 203.383 16.0904 202.576 14.2851 199.955C12.4798 197.334 12.9764 193.768 15.4292 191.74L39.2013 172.086L20.5506 182.767C17.7656 184.362 14.2222 183.543 12.4196 180.887C10.6171 178.232 11.1637 174.636 13.674 172.637L32.0563 157.993L12.174 166.227C9.335 167.403 6.06395 166.299 4.51831 163.643C2.97267 160.987 3.62851 157.598 6.05327 155.71L26.6486 139.677L13.8307 144.504C11.0417 145.555 7.90104 144.451 6.38307 141.886C4.86511 139.321 5.40824 136.037 7.67106 134.097L35.7813 110.003L12.892 123.202C10.0528 124.84 6.4281 123.958 4.65778 121.2C2.88746 118.442 3.59576 114.779 6.26685 112.88L53.2311 79.4852L10.7313 103.869C7.90997 105.488 4.31576 104.625 2.53634 101.902C0.756928 99.1792 1.4099 95.5411 4.02515 93.607L42.5288 65.1313L14.7318 81.1463C11.976 82.7341 8.46386 81.9545 6.63866 79.3498C4.81345 76.7452 5.27946 73.1779 7.71249 71.1296L33.2768 49.607L11.9544 61.8145C9.32349 63.3208 5.98703 62.6813 4.09945 60.3091C2.21188 57.9368 2.3383 54.542 4.39707 52.3167L20.8382 34.5458L14.5978 37.9362C12.6578 38.9902 10.3013 38.9215 8.42611 37.7561C6.55088 36.5908 5.44571 34.5084 5.53166 32.3023L6.0725 18.4207C3.88787 18.3944 1.78705 17.2001 0.702215 15.1291C-0.871177 12.1253 0.288356 8.41482 3.2921 6.84143L9.73882 3.46457C11.6798 2.44786 14.0155 2.54262 15.8678 3.71324C17.7201 4.88385 18.8081 6.95287 18.7228 9.14237L18.2221 21.9923L47.7229 5.96433C50.364 4.52942 53.6556 5.21748 55.5007 7.59016C57.3458 9.96284 57.202 13.3225 55.1608 15.5288L40.6049 31.2621L86.2838 5.11C89.0411 3.53136 92.5474 4.3172 94.3672 6.92168C96.187 9.52616 95.7191 13.0888 93.2886 15.1351L68.5302 35.9791L129.554 0.820519C132.375 -0.804372 135.973 0.054024 137.756 2.77709ZM63.5828 126.847L61.7691 127.898L61.5827 128.043L63.5828 126.847Z" fill="#434234"/>
</svg>
